<svg width="21" height="15" viewBox="0 0 21 15" fill="none" xmlns="http://www.w3.org/2000/svg">
<path d="M20.1294 2.54597L8.12939 14.546C8.02488 14.6509 7.90068 14.7341 7.76394 14.7909C7.62719 14.8476 7.48058 14.8769 7.33252 14.8769C7.18445 14.8769 7.03784 14.8476 6.9011 14.7909C6.76435 14.7341 6.64016 14.6509 6.53564 14.546L1.28564 9.29598C1.181 9.19133 1.09799 9.06709 1.04135 8.93037C0.984716 8.79364 0.955566 8.64709 0.955566 8.4991C0.955566 8.35111 0.984716 8.20456 1.04135 8.06783C1.09799 7.93111 1.181 7.80687 1.28564 7.70223C1.39029 7.59758 1.51452 7.51457 1.65125 7.45793C1.78798 7.4013 1.93452 7.37215 2.08252 7.37215C2.23051 7.37215 2.37706 7.4013 2.51378 7.45793C2.65051 7.51457 2.77475 7.59758 2.87939 7.70223L7.33346 12.1563L18.5375 0.9541C18.7489 0.742755 19.0355 0.624023 19.3344 0.624023C19.6333 0.624023 19.9199 0.742755 20.1313 0.9541C20.3426 1.16544 20.4613 1.45209 20.4613 1.75098C20.4613 2.04986 20.3426 2.33651 20.1313 2.54785L20.1294 2.54597Z" fill="#23A6F0"/>
</svg>
